<?xml version="1.0" standalone="no"?>
<!DOCTYPE svg PUBLIC "-//W3C//DTD SVG 20010904//EN"
 "http://www.w3.org/TR/2001/REC-SVG-20010904/DTD/svg10.dtd">
<svg version="1.0" xmlns="http://www.w3.org/2000/svg"
 width="2020.000000pt" height="2824.000000pt" viewBox="0 0 2020.000000 2824.000000"
 preserveAspectRatio="xMidYMid meet">
<metadata>
Created by potrace 1.16, written by Peter Selinger 2001-2019
</metadata>
<g transform="translate(0.000000,2824.000000) scale(0.100000,-0.100000)"
fill="#000000" stroke="none">
<path d="M1650 28230 c-428 -30 -822 -211 -1130 -520 -280 -280 -450 -620
-505 -1010 -14 -105 -16 -1187 -13 -12605 3 -11943 4 -12494 21 -12585 78
-413 236 -718 513 -992 307 -302 686 -475 1117 -508 140 -11 6552 -11 12867 0
3684 6 4143 9 4210 23 393 81 687 235 949 498 280 280 448 614 506 1010 14 93
15 1425 13 12599 -3 11949 -4 12499 -21 12590 -78 413 -231 712 -503 984 -269
270 -565 423 -969 504 -73 15 -838 16 -8515 18 -4639 0 -8482 -2 -8540 -6z
m16950 -1093 c172 -58 306 -171 379 -318 23 -46 48 -115 55 -154 12 -59 15
-1981 17 -12605 l4 -12535 -23 -70 c-66 -199 -216 -351 -412 -418 l-65 -22
-8425 -3 c-7479 -2 -8431 0 -8485 13 -217 54 -392 230 -452 455 -17 62 -18
684 -18 12615 l0 12550 22 70 c61 193 218 349 418 416 49 17 3613 24 11635 24
5121 0 5297 -1 5350 -18z m-17963 -11805 c-1 -1115 -2 -202 -2 2028 0 2230 1
3143 2 2027 2 -1115 2 -2939 0 -4055z"/>
<path d="M3144 26150 c-149 -22 -285 -142 -328 -289 -14 -49 -16 -331 -16
-2911 0 -3112 -4 -2914 55 -3013 29 -51 106 -126 159 -156 94 -53 -72 -51
3081 -51 1991 0 2941 3 2985 11 173 28 317 173 338 341 4 29 5 1340 2 2913
l-5 2860 -31 65 c-34 72 -104 146 -174 186 -99 57 68 54 -3095 53 -1606 -1
-2943 -5 -2971 -9z"/>
<path d="M3122 19009 c-99 -19 -204 -94 -263 -187 -64 -101 -59 135 -57 -3034
l3 -2884 38 -76 c63 -128 173 -209 310 -229 70 -10 4955 -10 5577 0 l395 6 58
27 c125 59 221 188 236 317 3 31 4 1341 1 2911 l-5 2855 -31 66 c-35 73 -113
158 -174 189 -104 53 81 50 -3100 49 -1620 -1 -2964 -5 -2988 -10z"/>
<path d="M11052 19009 c-135 -26 -261 -142 -302 -277 -20 -67 -20 -81 -18
-2947 l3 -2880 32 -68 c61 -129 179 -218 316 -238 69 -10 4973 -10 5587 0
l385 6 65 31 c124 60 214 184 229 317 4 34 5 1345 2 2912 l-6 2850 -31 66
c-35 73 -113 158 -174 189 -104 53 81 50 -3100 49 -1620 -1 -2964 -5 -2988
-10z"/>
<path d="M5806 11910 c-590 -57 -1161 -267 -1636 -603 -225 -159 -513 -428
-672 -627 -292 -367 -488 -744 -614 -1184 -125 -433 -156 -923 -88 -1386 61
-421 215 -847 439 -1215 500 -823 1339 -1398 2280 -1564 228 -41 296 -46 600
-46 313 1 414 9 649 56 818 163 1538 616 2041 1284 332 441 537 937 627 1514
19 116 22 182 22 451 1 322 -2 368 -45 605 -95 522 -315 1010 -653 1445 -103
134 -409 442 -546 550 -485 383 -1029 613 -1670 706 -124 18 -600 27 -734 14z"/>
<path d="M13775 11914 c-99 -8 -342 -46 -455 -70 -1048 -225 -1944 -963 -2365
-1949 -124 -290 -198 -570 -247 -925 -20 -146 -16 -623 5 -780 52 -370 150
-701 301 -1015 464 -965 1379 -1659 2431 -1844 228 -41 296 -46 600 -46 313 1
414 9 649 56 1194 237 2171 1101 2539 2244 121 375 164 684 154 1105 -8 348
-48 592 -149 910 -262 828 -873 1549 -1648 1944 -376 192 -693 291 -1150 356
-76 11 -573 21 -665 14z"/>
<path d="M7830 3950 c-41 -4 -103 -11 -136 -14 l-61 -8 -7 -60 c-3 -34 -6
-443 -6 -909 l0 -849 250 0 250 0 0 283 0 282 168 1 c195 1 298 20 422 82 142
70 252 210 295 377 36 138 30 315 -15 442 -71 202 -280 334 -590 372 -93 12
-452 12 -570 1z m512 -381 c123 -26 186 -83 209 -187 29 -138 -36 -266 -159
-312 -63 -24 -179 -37 -236 -26 l-36 7 0 259 0 259 23 4 c45 9 148 7 199 -4z"/>
<path d="M2918 3048 c-3 -497 -4 -905 -1 -908 24 -26 632 -50 787 -31 317 40
476 159 543 403 13 46 18 102 18 203 0 120 -3 149 -23 206 -60 176 -193 292
-397 351 -70 20 -103 23 -257 23 l-178 0 0 138 0 137 395 0 395 0 0 190 0 190
-639 0 -638 0 -5 -902z m768 -136 c84 -44 120 -114 111 -219 -12 -156 -135
-233 -331 -209 l-56 7 0 218 c0 120 3 221 8 225 4 4 57 6 117 4 88 -3 118 -8
151 -26z"/>
<path d="M12636 3020 c-4 -501 -6 -913 -4 -915 2 -1 117 -5 255 -8 l253 -7 2
424 3 423 245 -424 244 -423 289 0 c227 0 288 3 284 13 -2 6 -136 220 -296
475 -160 255 -291 465 -291 467 0 2 128 198 285 435 157 237 285 433 285 436
0 2 -130 4 -289 4 l-289 0 -227 -372 c-125 -205 -231 -377 -236 -382 -4 -5 -5
163 -2 373 l6 381 -84 0 c-46 0 -161 3 -255 7 l-171 6 -7 -913z"/>
<path d="M4949 3440 c-258 -41 -445 -210 -510 -459 -27 -102 -29 -297 -4 -396
68 -273 279 -448 583 -485 104 -13 302 -1 406 25 79 20 206 65 206 74 0 3 -22
74 -49 156 -33 102 -53 149 -62 148 -8 -1 -54 -16 -104 -34 -74 -26 -110 -33
-201 -37 -187 -8 -264 32 -315 165 l-10 26 420 -6 419 -7 6 23 c3 12 6 79 6
148 0 220 -51 361 -175 486 -79 79 -167 128 -280 158 -73 19 -259 27 -336 15z
m246 -335 c45 -18 82 -67 94 -125 19 -87 35 -80 -194 -80 -233 0 -218 -7 -190
88 36 120 162 171 290 117z"/>
<path d="M9725 3429 c-292 -21 -512 -219 -565 -507 -15 -87 -13 -257 4 -342
38 -179 164 -340 331 -420 153 -75 354 -98 560 -65 129 20 305 73 305 91 0 5
-81 263 -94 300 -3 8 -34 1 -93 -21 -196 -74 -401 -65 -487 21 -27 27 -56 81
-56 104 0 7 136 10 414 10 l415 0 7 22 c15 49 6 271 -15 353 -83 322 -339 481
-726 454z m201 -338 c23 -10 50 -32 61 -47 22 -31 43 -95 43 -131 l0 -23 -205
0 c-229 0 -215 -6 -190 78 18 60 56 109 100 128 44 20 142 17 191 -5z"/>
<path d="M6137 3253 c-4 -91 -7 -257 -7 -368 0 -111 -5 -226 -10 -256 -23
-118 -70 -160 -205 -182 l-78 -12 7 -110 c4 -60 9 -138 13 -173 l6 -63 61 6
c426 43 595 150 668 423 16 63 21 119 25 315 l6 237 89 0 89 0 -3 -480 -3
-480 248 0 247 0 0 655 0 655 -573 0 -574 0 -6 -167z"/>
<path d="M14848 3405 c-175 -33 -310 -116 -398 -245 -84 -124 -114 -233 -113
-420 0 -152 19 -242 72 -349 38 -75 141 -185 213 -228 126 -75 304 -108 499
-92 306 26 518 210 575 498 25 129 16 319 -21 430 -26 76 -75 164 -122 216
-69 78 -189 148 -308 180 -86 23 -300 28 -397 10z m260 -350 c86 -36 121 -111
129 -275 12 -246 -58 -364 -215 -363 -151 0 -211 92 -212 320 0 240 57 329
213 332 26 1 64 -6 85 -14z"/>
<path d="M16717 3409 c-103 -11 -191 -54 -278 -135 -45 -43 -47 -44 -53 -22
-3 13 -6 49 -6 81 l0 57 -225 0 -225 0 0 -925 0 -925 240 0 240 0 0 346 0 347
53 -51 c96 -90 213 -130 345 -119 135 12 239 67 325 173 104 128 149 280 148
504 0 256 -57 426 -182 545 -103 98 -233 140 -382 124z m16 -401 c130 -100
123 -454 -11 -543 -107 -70 -234 -24 -283 103 -17 45 -21 79 -22 162 0 120 10
166 51 231 39 61 80 80 163 77 54 -3 73 -9 102 -30z"/>
<path d="M10710 3162 c0 -137 -3 -432 -7 -655 l-6 -407 236 0 237 0 2 315 3
315 66 -177 65 -178 195 -3 194 -2 65 176 65 175 3 -310 2 -311 234 0 233 0 6
317 c4 174 7 466 7 650 l0 333 -259 0 -259 0 -64 -152 c-36 -84 -100 -237
-143 -341 -43 -103 -82 -184 -86 -180 -10 10 -279 660 -279 673 0 6 -100 10
-255 10 l-255 0 0 -248z"/>
</g>
</svg>
