<?xml version="1.0" standalone="no"?>
<!DOCTYPE svg PUBLIC "-//W3C//DTD SVG 20010904//EN"
 "http://www.w3.org/TR/2001/REC-SVG-20010904/DTD/svg10.dtd">
<svg version="1.0" xmlns="http://www.w3.org/2000/svg"
 width="340.000000pt" height="53.000000pt" viewBox="0 0 340.000000 53.000000"
 preserveAspectRatio="xMidYMid meet">
<metadata>
Created by potrace 1.16, written by Peter Selinger 2001-2019
</metadata>
<g transform="translate(0.000000,53.000000) scale(0.100000,-0.100000)"
fill="#000000" stroke="none">
<path d="M0 265 l0 -265 1700 0 1700 0 0 265 0 265 -1700 0 -1700 0 0 -265z
m248 123 c-3 -9 -34 -14 -96 -16 l-92 -3 0 -44 0 -45 43 0 c110 0 157 -26 157
-85 0 -75 -32 -95 -150 -95 l-80 0 0 150 0 150 111 0 c84 0 110 -3 107 -12z
m362 -3 c0 -12 -17 -15 -90 -15 l-90 0 0 -50 0 -50 80 0 c64 0 80 -3 80 -15 0
-12 -16 -15 -80 -15 l-80 0 0 -55 0 -55 90 0 c73 0 90 -3 90 -15 0 -12 -18
-15 -105 -15 l-105 0 0 150 0 150 105 0 c87 0 105 -3 105 -15z m370 -135 c0
-127 -2 -150 -15 -150 -13 0 -15 22 -15 135 l0 136 -72 -3 -73 -3 -6 -100 c-5
-94 -18 -140 -43 -157 -20 -14 -56 -9 -56 7 0 8 9 15 21 15 27 0 49 54 49 123
0 30 3 75 6 101 l7 46 98 0 99 0 0 -150z m350 135 c36 -19 50 -43 50 -89 0
-66 -60 -105 -162 -106 l-38 0 0 -45 c0 -33 -4 -45 -15 -45 -13 0 -15 23 -15
150 l0 150 75 0 c48 0 87 -6 105 -15z m390 0 c0 -12 -16 -15 -85 -15 l-85 0 0
-50 0 -50 75 0 c60 0 75 -3 75 -15 0 -12 -15 -15 -75 -15 l-75 0 0 -55 0 -55
90 0 c73 0 90 -3 90 -15 0 -12 -18 -15 -105 -15 l-105 0 0 150 0 150 100 0
c82 0 100 -3 100 -15z m233 -96 l64 -111 64 111 c35 61 70 111 77 111 9 0 12
-37 12 -150 0 -127 -2 -150 -15 -150 -12 0 -15 20 -15 118 l0 117 -57 -97
c-31 -54 -62 -98 -67 -98 -6 0 -36 44 -66 98 l-55 97 -3 -117 c-2 -96 -5 -118
-17 -118 -13 0 -15 25 -15 150 0 123 3 150 14 150 8 0 43 -50 79 -111z m417
46 l0 -65 35 0 c31 0 39 7 82 65 28 37 56 64 66 65 16 0 14 -6 -12 -42 -17
-24 -42 -56 -55 -73 l-24 -29 60 -78 c48 -64 55 -78 39 -78 -12 0 -38 25 -71
70 -47 63 -55 70 -86 70 l-34 0 0 -70 c0 -56 -3 -70 -15 -70 -13 0 -15 23 -15
150 0 127 2 150 15 150 12 0 15 -14 15 -65z m548 45 c96 -59 96 -201 0 -260
-44 -27 -122 -27 -166 0 -96 59 -96 201 0 260 44 27 122 27 166 0z m415 -8
c32 -31 41 -65 27 -108 -15 -44 -52 -63 -135 -71 l-65 -6 0 -43 c0 -32 -4 -44
-15 -44 -13 0 -15 23 -15 151 l0 151 89 -4 c77 -3 93 -6 114 -26z"/>
<path d="M60 190 l0 -60 68 0 c77 0 102 16 102 63 0 39 -34 57 -107 57 l-63 0
0 -60z"/>
<path d="M1180 295 l0 -75 44 0 c110 0 163 64 101 125 -20 21 -34 25 -85 25
l-60 0 0 -75z"/>
<path d="M2758 347 c-50 -42 -62 -101 -33 -157 41 -79 179 -79 220 0 29 57 12
130 -39 164 -38 24 -115 21 -148 -7z"/>
<path d="M3162 298 l3 -73 63 1 c77 1 102 20 102 75 0 52 -26 69 -108 69 l-63
0 3 -72z"/>
</g>
</svg>
