<?xml version="1.0" standalone="no"?>
<!DOCTYPE svg PUBLIC "-//W3C//DTD SVG 20010904//EN"
 "http://www.w3.org/TR/2001/REC-SVG-20010904/DTD/svg10.dtd">
<svg version="1.0" xmlns="http://www.w3.org/2000/svg"
 width="2016.000000pt" height="2492.000000pt" viewBox="0 0 2016.000000 2492.000000"
 preserveAspectRatio="xMidYMid meet">
<metadata>
Created by potrace 1.16, written by Peter Selinger 2001-2019
</metadata>
<g transform="translate(0.000000,2492.000000) scale(0.100000,-0.100000)"
fill="#000000" stroke="none">
<path d="M1650 24910 c-428 -30 -822 -211 -1130 -520 -280 -280 -450 -620
-505 -1010 -14 -105 -16 -1049 -13 -10945 3 -10347 4 -10834 21 -10925 78
-413 236 -718 513 -992 307 -302 686 -475 1117 -508 140 -11 6552 -11 12867 0
4487 8 4149 3 4365 59 146 37 330 117 462 199 392 243 686 633 793 1052 20 78
20 115 20 11130 l0 11052 -21 81 c-110 439 -396 825 -794 1074 -181 113 -386
190 -640 241 -73 15 -838 16 -8515 18 -4639 0 -8482 -2 -8540 -6z m16950
-1093 c172 -58 306 -171 379 -318 23 -46 48 -115 55 -154 13 -60 15 -1641 17
-10945 l2 -10875 -22 -70 c-63 -197 -214 -350 -411 -418 l-65 -22 -8425 -3
c-7479 -2 -8431 0 -8485 13 -217 54 -392 230 -452 455 -17 62 -18 606 -18
10955 l0 10890 22 70 c61 193 218 349 418 416 49 17 3613 24 11635 24 5121 0
5297 -1 5350 -18z m-17963 -11805 c-1 -1115 -2 -202 -2 2028 0 2230 1 3143 2
2027 2 -1115 2 -2939 0 -4055z"/>
<path d="M3144 22830 c-149 -22 -285 -142 -328 -289 -14 -49 -16 -331 -16
-2911 0 -3112 -4 -2914 55 -3013 29 -51 106 -126 159 -156 94 -53 -72 -51
3081 -51 1991 0 2941 3 2985 11 173 28 317 173 338 341 4 29 5 1340 2 2913
l-5 2860 -31 65 c-34 72 -104 146 -174 186 -99 57 68 54 -3095 53 -1606 -1
-2943 -5 -2971 -9z"/>
<path d="M3122 15689 c-99 -19 -204 -94 -263 -187 -64 -101 -59 135 -57 -3034
l3 -2884 38 -76 c63 -128 173 -209 310 -229 70 -10 4955 -10 5577 0 l395 6 58
27 c125 59 221 188 236 317 3 31 4 1341 1 2911 l-5 2855 -31 66 c-35 73 -113
158 -174 189 -104 53 81 50 -3100 49 -1620 -1 -2964 -5 -2988 -10z"/>
<path d="M11052 15689 c-135 -26 -261 -142 -302 -277 -20 -67 -20 -81 -18
-2947 l3 -2880 32 -68 c61 -129 179 -218 316 -238 69 -10 4973 -10 5587 0
l385 6 65 31 c124 60 214 184 229 317 4 34 5 1345 2 2912 l-6 2850 -31 66
c-35 73 -113 158 -174 189 -104 53 81 50 -3100 49 -1620 -1 -2964 -5 -2988
-10z"/>
<path d="M5806 8590 c-590 -57 -1161 -267 -1636 -603 -225 -159 -513 -428
-672 -627 -292 -367 -488 -744 -614 -1184 -125 -433 -156 -923 -88 -1386 61
-421 215 -847 439 -1215 500 -823 1339 -1398 2280 -1564 228 -41 296 -46 600
-46 313 1 414 9 649 56 818 163 1538 616 2041 1284 332 441 537 937 627 1514
19 116 22 182 22 451 1 322 -2 368 -45 605 -95 522 -315 1010 -653 1445 -103
134 -409 442 -546 550 -485 383 -1029 613 -1670 706 -124 18 -600 27 -734 14z"/>
<path d="M13775 8594 c-99 -8 -342 -46 -455 -70 -1048 -225 -1944 -963 -2365
-1949 -124 -290 -198 -570 -247 -925 -20 -146 -16 -623 5 -780 52 -370 150
-701 301 -1015 464 -965 1379 -1659 2431 -1844 228 -41 296 -46 600 -46 313 1
414 9 649 56 1194 237 2171 1101 2539 2244 121 375 164 684 154 1105 -8 348
-48 592 -149 910 -262 828 -873 1549 -1648 1944 -376 192 -693 291 -1150 356
-76 11 -573 21 -665 14z"/>
</g>
</svg>
